<svg xmlns="http://www.w3.org/2000/svg" viewBox="0 0 64 64">
  <defs>
    <linearGradient id="h" x1="0" y1="0" x2="0" y2="1">
      <stop offset="0" stop-color="#a9bd82"/>
      <stop offset="1" stop-color="#7aa35a"/>
    </linearGradient>
    <clipPath id="r"><rect width="64" height="64" rx="14"/></clipPath>
  </defs>
  <g clip-path="url(#r)">
    <rect width="64" height="64" fill="#e8d6a8"/>
    <rect width="64" height="64" fill="none" stroke="#3a2f28" stroke-width="4"/>
    <!-- legs -->
    <g stroke="#3a2f28" stroke-width="2.4" stroke-linecap="round" fill="none">
      <path d="M26 50c-4 3-6 5-9 5"/><path d="M30 52c-2 4-3 6-3 8"/>
      <path d="M34 52c2 4 3 6 3 8"/><path d="M38 50c4 3 6 5 9 5"/>
    </g>
    <rect x="26" y="46" width="12" height="4" rx="2" fill="#586f39" stroke="#3a2f28" stroke-width="2"/>
    <rect x="29" y="32" width="6" height="15" rx="2" fill="#c9d4ac" stroke="#3a2f28" stroke-width="2"/>
    <line x1="29" y1="37" x2="35" y2="37" stroke="#3a2f28" stroke-width="1.3"/>
    <line x1="29" y1="41" x2="35" y2="41" stroke="#3a2f28" stroke-width="1.3"/>
    <path d="M32 8 L47 17 L47 30 L32 39 L17 30 L17 17 Z" fill="url(#h)" stroke="#3a2f28" stroke-width="2.6" stroke-linejoin="round"/>
    <circle cx="27" cy="22" r="2.2" fill="#3a2f28"/><circle cx="37" cy="22" r="2.2" fill="#3a2f28"/>
    <path d="M28 28c2 2.2 6 2.2 8 0" stroke="#3a2f28" stroke-width="2" fill="none" stroke-linecap="round"/>
    <circle cx="24" cy="26" r="1.8" fill="#d98f6e" opacity="0.6"/><circle cx="40" cy="26" r="1.8" fill="#d98f6e" opacity="0.6"/>
  </g>
</svg>
